<!-- <svg width="40" height="40" viewBox="0 0 40 40" xmlns="http://www.w3.org/2000/svg">
    <circle cx="20" cy="20" r="18" stroke="#ccc" stroke-width="4" fill="none"/>
    <circle cx="20" cy="20" r="18" stroke="#007bff" stroke-width="4" fill="none"
        stroke-dasharray="89,200" stroke-dashoffset="0">
        <animate attributeName="stroke-dashoffset" dur="1.5s" from="0" to="-289" repeatCount="indefinite"/>
    </circle>
</svg> -->

<?xml version="1.0" encoding="UTF-8"?>
<!-- Generator: Adobe Illustrator 26.0.3, SVG Export Plug-In . SVG Version: 6.00 Build 0)  -->
<svg xmlns="http://www.w3.org/2000/svg" xmlns:xlink="http://www.w3.org/1999/xlink" version="1.1" id="Capa_1" x="0px" y="0px" viewBox="0 0 512 512" style="enable-background:new 0 0 512 512;" xml:space="preserve" width="512" height="512">
<path d="M256,323.817c-37.457,0-67.93-30.474-67.93-67.93c3.732-90.118,132.141-90.092,135.859,0.001  C323.93,293.344,293.457,323.817,256,323.817z M256,209.958c-25.326,0-45.93,20.604-45.93,45.93  c2.523,60.932,89.346,60.914,91.859,0C301.93,230.561,281.326,209.958,256,209.958z"/>
<path d="M256,86.95c-24.003,0-43.531-19.528-43.531-43.531c2.391-57.75,84.68-57.733,87.063,0  C299.531,67.422,280.003,86.95,256,86.95z M256,21.888c-11.873,0-21.531,9.659-21.531,21.531c1.183,28.564,41.884,28.556,43.063,0  C277.531,31.547,267.873,21.888,256,21.888z"/>
<path d="M256,511.888c-24.003,0-43.531-19.528-43.531-43.531c2.045-57.614,85.026-57.6,87.063,0.001  C299.531,492.359,280.003,511.888,256,511.888z M256,446.825c-11.873,0-21.531,9.659-21.531,21.531  c1.012,28.497,42.055,28.49,43.063,0C277.531,456.484,267.873,446.825,256,446.825z"/>
<path d="M43.531,299.419C19.528,299.419,0,279.89,0,255.888c2.391-57.75,84.679-57.734,87.062,0  C87.062,279.89,67.534,299.419,43.531,299.419z M43.531,234.356c-11.873,0-21.531,9.659-21.531,21.531  c1.183,28.564,41.883,28.556,43.062,0C65.062,244.015,55.403,234.356,43.531,234.356z"/>
<path d="M468.469,299.419c-24.003,0-43.531-19.528-43.531-43.531c2.391-57.75,84.68-57.733,87.062,0  C512,279.89,492.472,299.419,468.469,299.419z M468.469,234.356c-11.872,0-21.531,9.659-21.531,21.531  c1.183,28.564,41.884,28.556,43.062,0C490,244.015,480.341,234.356,468.469,234.356z"/>
<g>
	<path d="M143.33,127.661c9.977-16.459,7.129-39.348-6.787-52.793C94.009,35.727,35.844,93.924,74.981,136.431   c14.18,14.166,35.881,16.639,52.786,6.78l39.944,39.944c4.296,4.295,11.26,4.295,15.557,0c4.295-4.296,4.295-11.261,0-15.557   L143.33,127.661z M120.986,120.874c-21.036,19.361-49.807-9.425-30.449-30.449c8.394-8.394,22.055-8.394,30.449,0h0   C129.339,98.439,129.339,112.86,120.986,120.874z"/>
	<path d="M384.233,368.564l-39.944-39.944c-4.296-4.295-11.261-4.295-15.557,0c-4.295,4.296-4.295,11.261,0,15.557l39.938,39.938   c-24.931,44.15,31.769,88.125,68.35,52.792C472.306,399.764,428.489,343.909,384.233,368.564z M421.463,421.35   c-8.395,8.395-22.055,8.395-30.449,0h0c-13.55-13.664-3.811-36.717,15.225-36.745C425.148,384.477,435.018,407.859,421.463,421.35z   "/>
	<path d="M167.711,328.62l-39.944,39.944c-44.267-24.652-88.07,31.205-52.786,68.344c36.6,35.34,93.279-8.666,68.349-52.793   l39.937-39.938c4.295-4.296,4.295-11.261,0-15.557C178.972,324.325,172.007,324.325,167.711,328.62z M120.986,421.35   c-21.031,19.36-49.809-9.422-30.449-30.449C111.517,371.46,140.388,400.501,120.986,421.35z"/>
	<path d="M336.51,186.377c2.815,0,5.63-1.074,7.778-3.222l39.944-39.944c16.904,9.86,38.607,7.383,52.786-6.781   c39.143-42.522-19.052-100.704-61.562-61.562c-13.92,13.449-16.763,36.335-6.787,52.793l-39.938,39.938   C321.796,174.492,326.854,186.438,336.51,186.377z M391.014,90.425c8.395-8.395,22.055-8.395,30.449,0   c19.36,21.03-9.419,49.805-30.447,30.452C382.661,112.863,382.66,98.439,391.014,90.425z"/>
</g>
<path style="fill:#79CACA;" d="M245,85.539v56.489c0,6.075,4.925,11,11,11s11-4.925,11-11V85.539  C260.024,87.41,251.976,87.41,245,85.539z"/>
<path style="fill:#79CACA;" d="M267,426.236v-56.489c0-6.075-4.925-11-11-11s-11,4.925-11,11v56.489  C251.976,424.365,260.024,424.365,267,426.236z"/>
<path style="fill:#79CACA;" d="M142.141,244.888h-56.49c1.871,6.976,1.871,15.024,0,22h56.49c6.075,0,11-4.925,11-11  S148.216,244.888,142.141,244.888z"/>
<path style="fill:#79CACA;" d="M426.349,244.888h-56.49c-6.075,0-11,4.925-11,11s4.925,11,11,11h56.49  C424.478,259.911,424.478,251.864,426.349,244.888z"/>















</svg>
